<mxfile host="app.diagrams.net" agent="Mozilla/5.0 (X11; Linux x86_64; rv:132.0) Gecko/20100101 Firefox/132.0" version="24.8.4">
  <diagram name="第 1 页" id="f2C9azBvbqwrPbyLchOI">
    <mxGraphModel dx="1402" dy="750" grid="1" gridSize="10" guides="1" tooltips="1" connect="1" arrows="1" fold="1" page="1" pageScale="1" pageWidth="827" pageHeight="1169" math="0" shadow="0">
      <root>
        <mxCell id="0" />
        <mxCell id="1" parent="0" />
        <mxCell id="LaPq8CfM4VIGgw-9wt1N-1" value="" style="rounded=0;whiteSpace=wrap;html=1;" parent="1" vertex="1">
          <mxGeometry x="100" y="210" width="190" height="150" as="geometry" />
        </mxCell>
        <mxCell id="LaPq8CfM4VIGgw-9wt1N-2" value="token 1 chunk 1" style="rounded=0;whiteSpace=wrap;html=1;fillColor=#dae8fc;strokeColor=#6c8ebf;" parent="1" vertex="1">
          <mxGeometry x="110" y="220" width="170" height="20" as="geometry" />
        </mxCell>
        <mxCell id="LaPq8CfM4VIGgw-9wt1N-3" value="&lt;div&gt;token1 chunk2&lt;/div&gt;" style="rounded=0;whiteSpace=wrap;html=1;fillColor=#dae8fc;strokeColor=#6c8ebf;" parent="1" vertex="1">
          <mxGeometry x="110" y="250" width="170" height="20" as="geometry" />
        </mxCell>
        <mxCell id="LaPq8CfM4VIGgw-9wt1N-4" value="" style="rounded=0;whiteSpace=wrap;html=1;" parent="1" vertex="1">
          <mxGeometry x="319" y="210" width="190" height="150" as="geometry" />
        </mxCell>
        <mxCell id="LaPq8CfM4VIGgw-9wt1N-5" value="t2" style="rounded=0;whiteSpace=wrap;html=1;fillColor=#d5e8d4;strokeColor=#82b366;" parent="1" vertex="1">
          <mxGeometry x="329" y="220" width="170" height="20" as="geometry" />
        </mxCell>
        <mxCell id="LaPq8CfM4VIGgw-9wt1N-6" value="" style="rounded=0;whiteSpace=wrap;html=1;fillColor=#d5e8d4;strokeColor=#82b366;" parent="1" vertex="1">
          <mxGeometry x="329" y="250" width="170" height="20" as="geometry" />
        </mxCell>
        <mxCell id="LaPq8CfM4VIGgw-9wt1N-10" value="t3" style="rounded=0;whiteSpace=wrap;html=1;fillColor=#fff2cc;strokeColor=#d6b656;" parent="1" vertex="1">
          <mxGeometry x="110" y="280" width="170" height="20" as="geometry" />
        </mxCell>
        <mxCell id="LaPq8CfM4VIGgw-9wt1N-11" value="" style="rounded=0;whiteSpace=wrap;html=1;fillColor=#fff2cc;strokeColor=#d6b656;" parent="1" vertex="1">
          <mxGeometry x="110" y="310" width="170" height="20" as="geometry" />
        </mxCell>
        <mxCell id="LaPq8CfM4VIGgw-9wt1N-12" value="t4" style="rounded=0;whiteSpace=wrap;html=1;fillColor=#e1d5e7;strokeColor=#9673a6;" parent="1" vertex="1">
          <mxGeometry x="329" y="280" width="170" height="20" as="geometry" />
        </mxCell>
        <mxCell id="LaPq8CfM4VIGgw-9wt1N-13" value="" style="rounded=0;whiteSpace=wrap;html=1;fillColor=#e1d5e7;strokeColor=#9673a6;" parent="1" vertex="1">
          <mxGeometry x="329" y="310" width="170" height="20" as="geometry" />
        </mxCell>
        <mxCell id="LaPq8CfM4VIGgw-9wt1N-14" value="tile 1" style="shape=curlyBracket;whiteSpace=wrap;html=1;rounded=1;labelPosition=left;verticalLabelPosition=middle;align=right;verticalAlign=middle;" parent="1" vertex="1">
          <mxGeometry x="50" y="220" width="30" height="50" as="geometry" />
        </mxCell>
        <mxCell id="LaPq8CfM4VIGgw-9wt1N-15" value="&lt;div&gt;tile 2&lt;/div&gt;" style="shape=curlyBracket;whiteSpace=wrap;html=1;rounded=1;labelPosition=left;verticalLabelPosition=middle;align=right;verticalAlign=middle;" parent="1" vertex="1">
          <mxGeometry x="50" y="280" width="30" height="50" as="geometry" />
        </mxCell>
      </root>
    </mxGraphModel>
  </diagram>
</mxfile>
